<svg width="136" height="13" viewBox="0 0 136 13" fill="none" xmlns="http://www.w3.org/2000/svg">
<path d="M5.712 10.126C5.00267 10.126 4.34 10 3.724 9.748C3.108 9.48667 2.56667 9.12733 2.1 8.67C1.64267 8.20333 1.28333 7.662 1.022 7.046C0.77 6.43 0.644 5.76733 0.644 5.058C0.644 4.33933 0.77 3.67667 1.022 3.07C1.28333 2.454 1.64267 1.91733 2.1 1.46C2.56667 1.00267 3.10333 0.647999 3.71 0.395999C4.326 0.134666 4.99333 0.00399935 5.712 0.00399935C6.43067 0.00399935 7.09333 0.134666 7.7 0.395999C8.316 0.647999 8.85267 1.00267 9.31 1.46C9.76733 1.91733 10.122 2.454 10.374 3.07C10.6353 3.67667 10.766 4.33933 10.766 5.058C10.766 5.76733 10.6353 6.43 10.374 7.046C10.122 7.662 9.76733 8.20333 9.31 8.67C8.85267 9.12733 8.316 9.48667 7.7 9.748C7.09333 10 6.43067 10.126 5.712 10.126ZM5.712 9.51C6.33733 9.51 6.916 9.398 7.448 9.174C7.98933 8.95 8.456 8.63733 8.848 8.236C9.24933 7.82533 9.562 7.354 9.786 6.822C10.01 6.28067 10.122 5.69267 10.122 5.058C10.122 4.42333 10.01 3.84 9.786 3.308C9.562 2.76667 9.24933 2.29533 8.848 1.894C8.456 1.49267 7.98933 1.18 7.448 0.956C6.916 0.732 6.33733 0.62 5.712 0.62C5.07733 0.62 4.48933 0.732 3.948 0.956C3.416 1.18 2.94933 1.49267 2.548 1.894C2.156 2.29533 1.848 2.76667 1.624 3.308C1.4 3.84 1.288 4.42333 1.288 5.058C1.288 5.69267 1.4 6.28067 1.624 6.822C1.848 7.354 2.156 7.82533 2.548 8.236C2.94933 8.63733 3.416 8.95 3.948 9.174C4.48933 9.398 5.07733 9.51 5.712 9.51ZM5.894 8.082C4.98867 8.082 4.27467 7.802 3.752 7.242C3.23867 6.682 2.982 5.94 2.982 5.016C2.982 4.10133 3.23867 3.378 3.752 2.846C4.27467 2.314 4.98867 2.048 5.894 2.048C6.21133 2.048 6.52867 2.09933 6.846 2.202C7.16333 2.30467 7.448 2.44933 7.7 2.636C7.784 2.692 7.84 2.762 7.868 2.846C7.896 2.93 7.90067 3.014 7.882 3.098C7.86333 3.17267 7.826 3.238 7.77 3.294C7.714 3.35 7.644 3.38267 7.56 3.392C7.476 3.40133 7.38267 3.37333 7.28 3.308C7.056 3.15867 6.832 3.05133 6.608 2.986C6.384 2.92067 6.16467 2.888 5.95 2.888C5.334 2.888 4.85333 3.07467 4.508 3.448C4.16267 3.82133 3.99 4.34867 3.99 5.03C3.99 5.71133 4.16267 6.25267 4.508 6.654C4.85333 7.046 5.334 7.242 5.95 7.242C6.16467 7.242 6.384 7.20933 6.608 7.144C6.832 7.07867 7.06067 6.96667 7.294 6.808C7.41533 6.73333 7.52267 6.71467 7.616 6.752C7.71867 6.78 7.79333 6.84067 7.84 6.934C7.88667 7.018 7.90067 7.116 7.882 7.228C7.86333 7.33067 7.80267 7.41467 7.7 7.48C7.448 7.676 7.15867 7.82533 6.832 7.928C6.51467 8.03067 6.202 8.082 5.894 8.082ZM16.8034 10.098C16.6354 10.098 16.5047 10.0513 16.4114 9.958C16.3181 9.85533 16.2714 9.71533 16.2714 9.538V0.591999C16.2714 0.405333 16.3181 0.265333 16.4114 0.172C16.5047 0.0786664 16.6354 0.0319998 16.8034 0.0319998C16.9527 0.0319998 17.0694 0.0646664 17.1534 0.129999C17.2467 0.185999 17.3307 0.283999 17.4054 0.424L21.2414 7.648H20.8214L24.6434 0.424C24.7181 0.283999 24.7974 0.185999 24.8814 0.129999C24.9654 0.0646664 25.0867 0.0319998 25.2454 0.0319998C25.4041 0.0319998 25.5301 0.0786664 25.6234 0.172C25.7167 0.265333 25.7634 0.405333 25.7634 0.591999V9.538C25.7634 9.71533 25.7167 9.85533 25.6234 9.958C25.5394 10.0513 25.4087 10.098 25.2314 10.098C25.0634 10.098 24.9327 10.0513 24.8394 9.958C24.7461 9.85533 24.6994 9.71533 24.6994 9.538V1.67H25.0354L21.5354 8.236C21.4701 8.35733 21.4001 8.446 21.3254 8.502C21.2601 8.54867 21.1621 8.572 21.0314 8.572C20.9007 8.572 20.7981 8.544 20.7234 8.488C20.6487 8.432 20.5834 8.348 20.5274 8.236L16.9854 1.656H17.3214V9.538C17.3214 9.71533 17.2747 9.85533 17.1814 9.958C17.0974 10.0513 16.9714 10.098 16.8034 10.098ZM30.208 10.126C29.7413 10.126 29.3213 10.0373 28.948 9.86C28.584 9.67333 28.2946 9.42133 28.08 9.104C27.8653 8.78667 27.758 8.432 27.758 8.04C27.758 7.536 27.884 7.13933 28.136 6.85C28.3973 6.56067 28.822 6.35533 29.41 6.234C30.0073 6.11267 30.8193 6.052 31.846 6.052H32.476V6.794H31.86C31.104 6.794 30.5066 6.83133 30.068 6.906C29.6386 6.97133 29.3353 7.088 29.158 7.256C28.99 7.424 28.906 7.662 28.906 7.97C28.906 8.35267 29.0366 8.66533 29.298 8.908C29.5686 9.15067 29.9326 9.272 30.39 9.272C30.7633 9.272 31.09 9.18333 31.37 9.006C31.6593 8.82867 31.8833 8.586 32.042 8.278C32.21 7.97 32.294 7.61533 32.294 7.214V5.618C32.294 5.03933 32.1773 4.624 31.944 4.372C31.7106 4.11067 31.328 3.98 30.796 3.98C30.4693 3.98 30.1426 4.022 29.816 4.106C29.4893 4.19 29.144 4.32533 28.78 4.512C28.6493 4.57733 28.5373 4.60067 28.444 4.582C28.3506 4.554 28.276 4.50267 28.22 4.428C28.164 4.35333 28.1313 4.26933 28.122 4.176C28.1126 4.07333 28.1313 3.97533 28.178 3.882C28.234 3.78867 28.318 3.714 28.43 3.658C28.8406 3.45267 29.2466 3.30333 29.648 3.21C30.0493 3.11667 30.432 3.07 30.796 3.07C31.384 3.07 31.8693 3.168 32.252 3.364C32.6346 3.55067 32.9193 3.84 33.106 4.232C33.2926 4.61467 33.386 5.10933 33.386 5.716V9.51C33.386 9.69667 33.3393 9.84133 33.246 9.944C33.162 10.0467 33.036 10.098 32.868 10.098C32.6906 10.098 32.5553 10.0467 32.462 9.944C32.3686 9.84133 32.322 9.69667 32.322 9.51V8.418H32.448C32.3733 8.77267 32.2286 9.076 32.014 9.328C31.8086 9.58 31.552 9.776 31.244 9.916C30.936 10.056 30.5906 10.126 30.208 10.126ZM36.0498 10.098C35.8631 10.098 35.7231 10.0467 35.6298 9.944C35.5364 9.84133 35.4898 9.69667 35.4898 9.51V3.672C35.4898 3.48533 35.5364 3.34533 35.6298 3.252C35.7231 3.14933 35.8584 3.098 36.0358 3.098C36.2131 3.098 36.3484 3.14933 36.4418 3.252C36.5444 3.34533 36.5958 3.48533 36.5958 3.672V4.876L36.4418 4.708C36.6378 4.16667 36.9551 3.76067 37.3938 3.49C37.8418 3.21 38.3551 3.07 38.9338 3.07C39.4751 3.07 39.9231 3.168 40.2778 3.364C40.6418 3.56 40.9124 3.85867 41.0898 4.26C41.2671 4.652 41.3558 5.15133 41.3558 5.758V9.51C41.3558 9.69667 41.3044 9.84133 41.2018 9.944C41.1084 10.0467 40.9731 10.098 40.7958 10.098C40.6091 10.098 40.4644 10.0467 40.3618 9.944C40.2684 9.84133 40.2218 9.69667 40.2218 9.51V5.828C40.2218 5.19333 40.0958 4.73133 39.8438 4.442C39.6011 4.14333 39.2091 3.994 38.6678 3.994C38.0424 3.994 37.5431 4.19 37.1698 4.582C36.8058 4.96467 36.6238 5.478 36.6238 6.122V9.51C36.6238 9.902 36.4324 10.098 36.0498 10.098ZM44.0068 10.098C43.8201 10.098 43.6801 10.0467 43.5868 9.944C43.4935 9.84133 43.4468 9.69667 43.4468 9.51V3.672C43.4468 3.48533 43.4935 3.34533 43.5868 3.252C43.6801 3.14933 43.8155 3.098 43.9928 3.098C44.1701 3.098 44.3055 3.14933 44.3988 3.252C44.5015 3.34533 44.5528 3.48533 44.5528 3.672V4.876L44.3988 4.708C44.5948 4.16667 44.9121 3.76067 45.3508 3.49C45.7988 3.21 46.3121 3.07 46.8908 3.07C47.4321 3.07 47.8801 3.168 48.2348 3.364C48.5988 3.56 48.8695 3.85867 49.0468 4.26C49.2241 4.652 49.3128 5.15133 49.3128 5.758V9.51C49.3128 9.69667 49.2615 9.84133 49.1588 9.944C49.0655 10.0467 48.9301 10.098 48.7528 10.098C48.5661 10.098 48.4215 10.0467 48.3188 9.944C48.2255 9.84133 48.1788 9.69667 48.1788 9.51V5.828C48.1788 5.19333 48.0528 4.73133 47.8008 4.442C47.5581 4.14333 47.1661 3.994 46.6248 3.994C45.9995 3.994 45.5001 4.19 45.1268 4.582C44.7628 4.96467 44.5808 5.478 44.5808 6.122V9.51C44.5808 9.902 44.3895 10.098 44.0068 10.098ZM51.9638 10.07C51.7772 10.07 51.6372 10.0187 51.5438 9.916C51.4505 9.804 51.4038 9.65 51.4038 9.454V3.728C51.4038 3.532 51.4505 3.38267 51.5438 3.28C51.6372 3.17733 51.7772 3.126 51.9638 3.126C52.1412 3.126 52.2812 3.17733 52.3838 3.28C52.4865 3.38267 52.5378 3.532 52.5378 3.728V9.454C52.5378 9.65 52.4865 9.804 52.3838 9.916C52.2905 10.0187 52.1505 10.07 51.9638 10.07ZM51.9638 1.558C51.7305 1.558 51.5485 1.49733 51.4178 1.376C51.2872 1.24533 51.2218 1.07267 51.2218 0.857999C51.2218 0.633999 51.2872 0.466 51.4178 0.354C51.5485 0.232666 51.7305 0.172 51.9638 0.172C52.2065 0.172 52.3885 0.232666 52.5098 0.354C52.6405 0.466 52.7058 0.633999 52.7058 0.857999C52.7058 1.07267 52.6405 1.24533 52.5098 1.376C52.3885 1.49733 52.2065 1.558 51.9638 1.558ZM55.2178 10.098C55.0311 10.098 54.8911 10.0467 54.7978 9.944C54.7044 9.84133 54.6578 9.69667 54.6578 9.51V3.672C54.6578 3.48533 54.7044 3.34533 54.7978 3.252C54.8911 3.14933 55.0264 3.098 55.2038 3.098C55.3811 3.098 55.5164 3.14933 55.6098 3.252C55.7124 3.34533 55.7638 3.48533 55.7638 3.672V4.876L55.6098 4.708C55.8058 4.16667 56.1231 3.76067 56.5618 3.49C57.0098 3.21 57.5231 3.07 58.1018 3.07C58.6431 3.07 59.0911 3.168 59.4458 3.364C59.8098 3.56 60.0804 3.85867 60.2578 4.26C60.4351 4.652 60.5238 5.15133 60.5238 5.758V9.51C60.5238 9.69667 60.4724 9.84133 60.3698 9.944C60.2764 10.0467 60.1411 10.098 59.9638 10.098C59.7771 10.098 59.6324 10.0467 59.5298 9.944C59.4364 9.84133 59.3898 9.69667 59.3898 9.51V5.828C59.3898 5.19333 59.2638 4.73133 59.0118 4.442C58.7691 4.14333 58.3771 3.994 57.8358 3.994C57.2104 3.994 56.7111 4.19 56.3378 4.582C55.9738 4.96467 55.7918 5.478 55.7918 6.122V9.51C55.7918 9.902 55.6004 10.098 55.2178 10.098ZM65.6248 12.646C65.1301 12.646 64.6448 12.5853 64.1688 12.464C63.7021 12.352 63.2774 12.17 62.8948 11.918C62.7828 11.8527 62.7081 11.7733 62.6708 11.68C62.6428 11.5867 62.6381 11.4933 62.6568 11.4C62.6754 11.316 62.7174 11.2367 62.7828 11.162C62.8481 11.0967 62.9228 11.0547 63.0068 11.036C63.1001 11.0173 63.1934 11.0313 63.2868 11.078C63.6974 11.33 64.0894 11.5027 64.4628 11.596C64.8361 11.6893 65.2048 11.736 65.5688 11.736C66.2314 11.736 66.7308 11.5587 67.0668 11.204C67.4121 10.8493 67.5848 10.336 67.5848 9.664V8.082H67.7248C67.5848 8.62333 67.2861 9.05267 66.8288 9.37C66.3808 9.68733 65.8534 9.846 65.2468 9.846C64.6214 9.846 64.0801 9.706 63.6228 9.426C63.1654 9.13667 62.8108 8.73533 62.5588 8.222C62.3161 7.70867 62.1948 7.116 62.1948 6.444C62.1948 5.94 62.2648 5.48267 62.4048 5.072C62.5448 4.652 62.7454 4.29733 63.0068 4.008C63.2774 3.70933 63.5994 3.48067 63.9728 3.322C64.3554 3.154 64.7801 3.07 65.2468 3.07C65.8628 3.07 66.3948 3.22867 66.8428 3.546C67.2908 3.854 67.5801 4.274 67.7108 4.806L67.5708 4.974V3.672C67.5708 3.48533 67.6174 3.34533 67.7108 3.252C67.8134 3.14933 67.9534 3.098 68.1308 3.098C68.3174 3.098 68.4574 3.14933 68.5508 3.252C68.6441 3.34533 68.6908 3.48533 68.6908 3.672V9.51C68.6908 10.546 68.4294 11.3253 67.9068 11.848C67.3934 12.38 66.6328 12.646 65.6248 12.646ZM65.4568 8.922C65.8954 8.922 66.2734 8.824 66.5908 8.628C66.9081 8.42267 67.1508 8.13333 67.3188 7.76C67.4961 7.38667 67.5848 6.948 67.5848 6.444C67.5848 5.688 67.3934 5.09067 67.0108 4.652C66.6281 4.204 66.1101 3.98 65.4568 3.98C65.0274 3.98 64.6541 4.08267 64.3368 4.288C64.0194 4.484 63.7721 4.76867 63.5948 5.142C63.4268 5.506 63.3428 5.94 63.3428 6.444C63.3428 7.2 63.5341 7.802 63.9168 8.25C64.2994 8.698 64.8128 8.922 65.4568 8.922ZM73.7719 10.126C73.1186 10.126 72.5539 10.0233 72.0779 9.818C71.6019 9.60333 71.2379 9.30933 70.9859 8.936C70.7432 8.56267 70.6219 8.12867 70.6219 7.634C70.6219 7.31667 70.6639 7.02733 70.7479 6.766C70.8319 6.49533 70.9579 6.24333 71.1259 6.01C71.3032 5.76733 71.5226 5.534 71.7839 5.31C72.0452 5.086 72.3486 4.85733 72.6939 4.624L73.1419 4.33L72.9879 4.568C72.5399 4.08267 72.2226 3.66267 72.0359 3.308C71.8586 2.944 71.7699 2.57067 71.7699 2.188C71.7699 1.75867 71.8679 1.38067 72.0639 1.054C72.2599 0.718 72.5399 0.461333 72.9039 0.284C73.2772 0.0973329 73.7066 0.00399935 74.1919 0.00399935C74.8452 0.00399935 75.3772 0.186 75.7879 0.55C76.1986 0.904666 76.4039 1.39 76.4039 2.006C76.4039 2.342 76.3386 2.65933 76.2079 2.958C76.0772 3.24733 75.8579 3.54133 75.5499 3.84C75.2419 4.12933 74.8126 4.43733 74.2619 4.764L74.2899 4.47L76.9079 7.41H76.6559C76.7866 7.186 76.8986 6.92933 76.9919 6.64C77.0946 6.35067 77.1786 6.038 77.2439 5.702C77.3186 5.35667 77.3699 4.99267 77.3979 4.61C77.4166 4.45133 77.4679 4.33 77.5519 4.246C77.6359 4.162 77.7572 4.12 77.9159 4.12C78.0746 4.12 78.1959 4.16667 78.2799 4.26C78.3639 4.35333 78.3966 4.48867 78.3779 4.666C78.3406 5.13267 78.2752 5.576 78.1819 5.996C78.0886 6.416 77.9672 6.808 77.8179 7.172C77.6686 7.52667 77.5006 7.85333 77.3139 8.152L77.2999 7.816L78.6859 9.342C78.8072 9.46333 78.8632 9.58467 78.8539 9.706C78.8539 9.818 78.8072 9.91133 78.7139 9.986C78.6299 10.0607 78.5132 10.098 78.3639 10.098C78.2332 10.098 78.1259 10.07 78.0419 10.014C77.9579 9.96733 77.8599 9.89267 77.7479 9.79L76.6839 8.586H76.9779C76.5859 9.07133 76.1146 9.44933 75.5639 9.72C75.0132 9.99067 74.4159 10.126 73.7719 10.126ZM73.8279 9.188C74.3599 9.188 74.8312 9.076 75.2419 8.852C75.6619 8.628 76.0259 8.30133 76.3339 7.872L76.3199 8.222L73.3519 4.974L73.7999 5.016L73.3659 5.296C72.9646 5.55733 72.6426 5.80467 72.3999 6.038C72.1666 6.262 71.9986 6.49533 71.8959 6.738C71.7932 6.98067 71.7419 7.25133 71.7419 7.55C71.7419 8.06333 71.9192 8.46467 72.2739 8.754C72.6286 9.04333 73.1466 9.188 73.8279 9.188ZM74.1919 0.886C73.7906 0.886 73.4639 1.00267 73.2119 1.236C72.9599 1.46933 72.8339 1.77733 72.8339 2.16C72.8339 2.36533 72.8619 2.55667 72.9179 2.734C72.9832 2.902 73.0952 3.09333 73.2539 3.308C73.4126 3.51333 73.6319 3.77933 73.9119 4.106L73.6179 4.12C74.0659 3.83067 74.4206 3.57867 74.6819 3.364C74.9432 3.14 75.1299 2.92533 75.2419 2.72C75.3539 2.51467 75.4099 2.29533 75.4099 2.062C75.4099 1.698 75.2979 1.41333 75.0739 1.208C74.8499 0.993333 74.5559 0.886 74.1919 0.886ZM84.9489 10.126C83.9783 10.126 83.1476 9.92067 82.4569 9.51C81.7663 9.09933 81.2343 8.516 80.8609 7.76C80.4969 7.004 80.3149 6.10333 80.3149 5.058C80.3149 4.274 80.4176 3.574 80.6229 2.958C80.8376 2.33267 81.1409 1.80533 81.5329 1.376C81.9343 0.937333 82.4243 0.601333 83.0029 0.368C83.5816 0.125333 84.2303 0.00399935 84.9489 0.00399935C85.5276 0.00399935 86.0783 0.0879994 86.6009 0.255999C87.1236 0.414666 87.5763 0.652666 87.9589 0.969999C88.0803 1.06333 88.1596 1.17067 88.1969 1.292C88.2436 1.404 88.2483 1.516 88.2109 1.628C88.1829 1.73067 88.1269 1.81933 88.0429 1.894C87.9683 1.95933 87.8749 1.992 87.7629 1.992C87.6509 1.992 87.5249 1.94533 87.3849 1.852C87.0489 1.58133 86.6803 1.38067 86.2789 1.25C85.8776 1.11933 85.4436 1.054 84.9769 1.054C84.2396 1.054 83.6143 1.21267 83.1009 1.53C82.5876 1.838 82.2003 2.29067 81.9389 2.888C81.6776 3.48533 81.5469 4.20867 81.5469 5.058C81.5469 5.90733 81.6776 6.63533 81.9389 7.242C82.2003 7.83933 82.5876 8.29667 83.1009 8.614C83.6143 8.922 84.2396 9.076 84.9769 9.076C85.4343 9.076 85.8683 9.01067 86.2789 8.88C86.6896 8.74 87.0676 8.53467 87.4129 8.264C87.5529 8.17067 87.6789 8.12867 87.7909 8.138C87.9029 8.138 87.9963 8.17067 88.0709 8.236C88.1456 8.30133 88.1969 8.38533 88.2249 8.488C88.2623 8.59067 88.2623 8.698 88.2249 8.81C88.1969 8.922 88.1269 9.02 88.0149 9.104C87.6229 9.44 87.1609 9.69667 86.6289 9.874C86.1063 10.042 85.5463 10.126 84.9489 10.126ZM92.2807 10.126C91.618 10.126 91.044 9.98133 90.5587 9.692C90.0733 9.40267 89.6953 8.99667 89.4247 8.474C89.1633 7.942 89.0327 7.31667 89.0327 6.598C89.0327 6.05667 89.1073 5.57133 89.2567 5.142C89.406 4.70333 89.6253 4.33 89.9147 4.022C90.204 3.714 90.5447 3.48067 90.9367 3.322C91.338 3.154 91.786 3.07 92.2807 3.07C92.9433 3.07 93.5173 3.21467 94.0027 3.504C94.488 3.79333 94.8613 4.204 95.1227 4.736C95.3933 5.25867 95.5287 5.87933 95.5287 6.598C95.5287 7.13933 95.454 7.62467 95.3047 8.054C95.1553 8.48333 94.936 8.85667 94.6467 9.174C94.3573 9.482 94.012 9.72 93.6107 9.888C93.2187 10.0467 92.7753 10.126 92.2807 10.126ZM92.2807 9.216C92.7007 9.216 93.0693 9.11333 93.3867 8.908C93.704 8.70267 93.9467 8.404 94.1147 8.012C94.292 7.62 94.3807 7.14867 94.3807 6.598C94.3807 5.74867 94.1893 5.1 93.8067 4.652C93.4333 4.204 92.9247 3.98 92.2807 3.98C91.8513 3.98 91.478 4.08267 91.1607 4.288C90.8527 4.484 90.61 4.778 90.4327 5.17C90.2647 5.55267 90.1807 6.02867 90.1807 6.598C90.1807 7.438 90.372 8.08667 90.7547 8.544C91.1373 8.992 91.646 9.216 92.2807 9.216ZM97.4635 10.056C97.2302 10.056 97.0435 9.986 96.9035 9.846C96.7635 9.69667 96.6935 9.51 96.6935 9.286C96.6935 9.062 96.7635 8.88 96.9035 8.74C97.0435 8.59067 97.2302 8.516 97.4635 8.516C97.6968 8.516 97.8788 8.59067 98.0095 8.74C98.1495 8.88 98.2195 9.062 98.2195 9.286C98.2195 9.51 98.1495 9.69667 98.0095 9.846C97.8788 9.986 97.6968 10.056 97.4635 10.056ZM104.454 10C104.249 10 104.095 9.95333 103.992 9.86C103.899 9.75733 103.852 9.622 103.852 9.454C103.852 9.35133 103.876 9.25333 103.922 9.16C103.978 9.05733 104.053 8.95467 104.146 8.852L107.282 5.492C107.758 4.97867 108.099 4.50733 108.304 4.078C108.519 3.63933 108.626 3.196 108.626 2.748C108.626 2.188 108.454 1.76333 108.108 1.474C107.772 1.17533 107.278 1.026 106.624 1.026C106.204 1.026 105.808 1.09133 105.434 1.222C105.061 1.35267 104.702 1.55333 104.356 1.824C104.235 1.91733 104.123 1.95933 104.02 1.95C103.927 1.94067 103.843 1.90333 103.768 1.838C103.694 1.77267 103.642 1.68867 103.614 1.586C103.586 1.48333 103.586 1.38067 103.614 1.278C103.652 1.17533 103.726 1.082 103.838 0.998C104.202 0.699333 104.641 0.461333 105.154 0.284C105.668 0.0973329 106.19 0.00399935 106.722 0.00399935C107.385 0.00399935 107.945 0.106666 108.402 0.312C108.86 0.517333 109.205 0.820666 109.438 1.222C109.672 1.614 109.788 2.09467 109.788 2.664C109.788 3.056 109.723 3.44333 109.592 3.826C109.471 4.19933 109.28 4.582 109.018 4.974C108.766 5.366 108.435 5.772 108.024 6.192L105.042 9.342V9.02H109.76C109.938 9.02 110.068 9.062 110.152 9.146C110.246 9.22067 110.292 9.33733 110.292 9.496C110.292 9.664 110.246 9.79 110.152 9.874C110.068 9.958 109.938 10 109.76 10H104.454ZM115.243 10.126C114.114 10.126 113.255 9.692 112.667 8.824C112.079 7.956 111.785 6.70067 111.785 5.058C111.785 3.95667 111.916 3.03267 112.177 2.286C112.438 1.53 112.826 0.960666 113.339 0.577999C113.862 0.195333 114.496 0.00399935 115.243 0.00399935C116.382 0.00399935 117.24 0.433333 117.819 1.292C118.407 2.14133 118.701 3.392 118.701 5.044C118.701 6.14533 118.57 7.074 118.309 7.83C118.048 8.586 117.66 9.16 117.147 9.552C116.634 9.93467 115.999 10.126 115.243 10.126ZM115.243 9.132C116.027 9.132 116.606 8.80067 116.979 8.138C117.362 7.466 117.553 6.43467 117.553 5.044C117.553 3.644 117.362 2.622 116.979 1.978C116.606 1.32467 116.027 0.998 115.243 0.998C114.468 0.998 113.89 1.32467 113.507 1.978C113.124 2.63133 112.933 3.65333 112.933 5.044C112.933 6.43467 113.124 7.466 113.507 8.138C113.89 8.80067 114.468 9.132 115.243 9.132ZM121.244 10C121.038 10 120.884 9.95333 120.782 9.86C120.688 9.75733 120.642 9.622 120.642 9.454C120.642 9.35133 120.665 9.25333 120.712 9.16C120.768 9.05733 120.842 8.95467 120.936 8.852L124.072 5.492C124.548 4.97867 124.888 4.50733 125.094 4.078C125.308 3.63933 125.416 3.196 125.416 2.748C125.416 2.188 125.243 1.76333 124.898 1.474C124.562 1.17533 124.067 1.026 123.414 1.026C122.994 1.026 122.597 1.09133 122.224 1.222C121.85 1.35267 121.491 1.55333 121.146 1.824C121.024 1.91733 120.912 1.95933 120.81 1.95C120.716 1.94067 120.632 1.90333 120.558 1.838C120.483 1.77267 120.432 1.68867 120.404 1.586C120.376 1.48333 120.376 1.38067 120.404 1.278C120.441 1.17533 120.516 1.082 120.628 0.998C120.992 0.699333 121.43 0.461333 121.944 0.284C122.457 0.0973329 122.98 0.00399935 123.512 0.00399935C124.174 0.00399935 124.734 0.106666 125.192 0.312C125.649 0.517333 125.994 0.820666 126.228 1.222C126.461 1.614 126.578 2.09467 126.578 2.664C126.578 3.056 126.512 3.44333 126.382 3.826C126.26 4.19933 126.069 4.582 125.808 4.974C125.556 5.366 125.224 5.772 124.814 6.192L121.832 9.342V9.02H126.55C126.727 9.02 126.858 9.062 126.942 9.146C127.035 9.22067 127.082 9.33733 127.082 9.496C127.082 9.664 127.035 9.79 126.942 9.874C126.858 9.958 126.727 10 126.55 10H121.244ZM129.638 10C129.433 10 129.279 9.95333 129.176 9.86C129.083 9.75733 129.036 9.622 129.036 9.454C129.036 9.35133 129.059 9.25333 129.106 9.16C129.162 9.05733 129.237 8.95467 129.33 8.852L132.466 5.492C132.942 4.97867 133.283 4.50733 133.488 4.078C133.703 3.63933 133.81 3.196 133.81 2.748C133.81 2.188 133.637 1.76333 133.292 1.474C132.956 1.17533 132.461 1.026 131.808 1.026C131.388 1.026 130.991 1.09133 130.618 1.222C130.245 1.35267 129.885 1.55333 129.54 1.824C129.419 1.91733 129.307 1.95933 129.204 1.95C129.111 1.94067 129.027 1.90333 128.952 1.838C128.877 1.77267 128.826 1.68867 128.798 1.586C128.77 1.48333 128.77 1.38067 128.798 1.278C128.835 1.17533 128.91 1.082 129.022 0.998C129.386 0.699333 129.825 0.461333 130.338 0.284C130.851 0.0973329 131.374 0.00399935 131.906 0.00399935C132.569 0.00399935 133.129 0.106666 133.586 0.312C134.043 0.517333 134.389 0.820666 134.622 1.222C134.855 1.614 134.972 2.09467 134.972 2.664C134.972 3.056 134.907 3.44333 134.776 3.826C134.655 4.19933 134.463 4.582 134.202 4.974C133.95 5.366 133.619 5.772 133.208 6.192L130.226 9.342V9.02H134.944C135.121 9.02 135.252 9.062 135.336 9.146C135.429 9.22067 135.476 9.33733 135.476 9.496C135.476 9.664 135.429 9.79 135.336 9.874C135.252 9.958 135.121 10 134.944 10H129.638Z" fill="#484848"/>
</svg>
